<?xml version="1.0" encoding="UTF-8"?>
<svg xmlns="http://www.w3.org/2000/svg" xmlns:xlink="http://www.w3.org/1999/xlink" width="3873" height="3873" viewBox="0 0 3873 3873">
<defs>
<clipPath id="clip-0">
<path clip-rule="evenodd" d="M 756.398438 0 L 3116.5 0 C 3534.300781 0 3873 338.699219 3873 756.398438 L 3873 3116.5 C 3873 3534.300781 3534.300781 3872.898438 3116.601562 3872.898438 L 756.398438 3872.898438 C 338.699219 3873 0 3534.300781 0 3116.5 L 0 756.398438 C 0 338.699219 338.699219 0 756.398438 0 "/>
</clipPath>
<linearGradient id="linear-pattern-0" gradientUnits="userSpaceOnUse" x1="-0.194443" y1="0" x2="1.194448" y2="0" gradientTransform="matrix(2788.55, 2788.56, -2788.56, 2788.55, 542.221, 542.21)">
<stop offset="0" stop-color="rgb(33.724976%, 70.979309%, 76.861572%)" stop-opacity="1"/>
<stop offset="0.125" stop-color="rgb(33.724976%, 70.979309%, 76.861572%)" stop-opacity="1"/>
<stop offset="0.140625" stop-color="rgb(33.718872%, 70.977783%, 76.846313%)" stop-opacity="1"/>
<stop offset="0.148438" stop-color="rgb(33.642578%, 70.954895%, 76.654053%)" stop-opacity="1"/>
<stop offset="0.15625" stop-color="rgb(33.502197%, 70.91217%, 76.296997%)" stop-opacity="1"/>
<stop offset="0.164062" stop-color="rgb(33.361816%, 70.869446%, 75.939941%)" stop-opacity="1"/>
<stop offset="0.171875" stop-color="rgb(33.221436%, 70.826721%, 75.58136%)" stop-opacity="1"/>
<stop offset="0.179687" stop-color="rgb(33.081055%, 70.783997%, 75.224304%)" stop-opacity="1"/>
<stop offset="0.1875" stop-color="rgb(32.940674%, 70.742798%, 74.867249%)" stop-opacity="1"/>
<stop offset="0.195312" stop-color="rgb(32.800293%, 70.700073%, 74.510193%)" stop-opacity="1"/>
<stop offset="0.203125" stop-color="rgb(32.659912%, 70.657349%, 74.151611%)" stop-opacity="1"/>
<stop offset="0.210937" stop-color="rgb(32.519531%, 70.614624%, 73.794556%)" stop-opacity="1"/>
<stop offset="0.21875" stop-color="rgb(32.37915%, 70.571899%, 73.4375%)" stop-opacity="1"/>
<stop offset="0.226562" stop-color="rgb(32.23877%, 70.529175%, 73.080444%)" stop-opacity="1"/>
<stop offset="0.234375" stop-color="rgb(32.098389%, 70.48645%, 72.721863%)" stop-opacity="1"/>
<stop offset="0.242187" stop-color="rgb(31.958008%, 70.443726%, 72.364807%)" stop-opacity="1"/>
<stop offset="0.25" stop-color="rgb(31.817627%, 70.401001%, 72.007751%)" stop-opacity="1"/>
<stop offset="0.257812" stop-color="rgb(31.677246%, 70.359802%, 71.650696%)" stop-opacity="1"/>
<stop offset="0.265625" stop-color="rgb(31.536865%, 70.317078%, 71.292114%)" stop-opacity="1"/>
<stop offset="0.273438" stop-color="rgb(31.396484%, 70.274353%, 70.935059%)" stop-opacity="1"/>
<stop offset="0.28125" stop-color="rgb(31.256104%, 70.231628%, 70.578003%)" stop-opacity="1"/>
<stop offset="0.289062" stop-color="rgb(31.115723%, 70.188904%, 70.220947%)" stop-opacity="1"/>
<stop offset="0.296875" stop-color="rgb(30.975342%, 70.146179%, 69.862366%)" stop-opacity="1"/>
<stop offset="0.304688" stop-color="rgb(30.834961%, 70.103455%, 69.50531%)" stop-opacity="1"/>
<stop offset="0.3125" stop-color="rgb(30.69458%, 70.06073%, 69.148254%)" stop-opacity="1"/>
<stop offset="0.320312" stop-color="rgb(30.554199%, 70.018005%, 68.791199%)" stop-opacity="1"/>
<stop offset="0.328125" stop-color="rgb(30.413818%, 69.976807%, 68.434143%)" stop-opacity="1"/>
<stop offset="0.335937" stop-color="rgb(30.273438%, 69.934082%, 68.075562%)" stop-opacity="1"/>
<stop offset="0.34375" stop-color="rgb(30.133057%, 69.891357%, 67.718506%)" stop-opacity="1"/>
<stop offset="0.351562" stop-color="rgb(29.992676%, 69.848633%, 67.36145%)" stop-opacity="1"/>
<stop offset="0.359375" stop-color="rgb(29.852295%, 69.805908%, 67.004395%)" stop-opacity="1"/>
<stop offset="0.367188" stop-color="rgb(29.711914%, 69.763184%, 66.645813%)" stop-opacity="1"/>
<stop offset="0.375" stop-color="rgb(29.571533%, 69.720459%, 66.288757%)" stop-opacity="1"/>
<stop offset="0.382812" stop-color="rgb(29.431152%, 69.677734%, 65.931702%)" stop-opacity="1"/>
<stop offset="0.390625" stop-color="rgb(29.290771%, 69.63501%, 65.574646%)" stop-opacity="1"/>
<stop offset="0.398437" stop-color="rgb(29.150391%, 69.593811%, 65.216064%)" stop-opacity="1"/>
<stop offset="0.40625" stop-color="rgb(29.01001%, 69.551086%, 64.859009%)" stop-opacity="1"/>
<stop offset="0.414062" stop-color="rgb(28.869629%, 69.508362%, 64.501953%)" stop-opacity="1"/>
<stop offset="0.421875" stop-color="rgb(28.729248%, 69.465637%, 64.144897%)" stop-opacity="1"/>
<stop offset="0.429688" stop-color="rgb(28.587341%, 69.422913%, 63.786316%)" stop-opacity="1"/>
<stop offset="0.4375" stop-color="rgb(28.44696%, 69.380188%, 63.42926%)" stop-opacity="1"/>
<stop offset="0.445312" stop-color="rgb(28.30658%, 69.337463%, 63.072205%)" stop-opacity="1"/>
<stop offset="0.453125" stop-color="rgb(28.166199%, 69.294739%, 62.715149%)" stop-opacity="1"/>
<stop offset="0.460937" stop-color="rgb(28.025818%, 69.25354%, 62.356567%)" stop-opacity="1"/>
<stop offset="0.46875" stop-color="rgb(27.885437%, 69.210815%, 61.999512%)" stop-opacity="1"/>
<stop offset="0.476562" stop-color="rgb(27.745056%, 69.168091%, 61.642456%)" stop-opacity="1"/>
<stop offset="0.484375" stop-color="rgb(27.604675%, 69.125366%, 61.2854%)" stop-opacity="1"/>
<stop offset="0.492187" stop-color="rgb(27.464294%, 69.082642%, 60.926819%)" stop-opacity="1"/>
<stop offset="0.5" stop-color="rgb(27.323914%, 69.039917%, 60.569763%)" stop-opacity="1"/>
<stop offset="0.507812" stop-color="rgb(27.183533%, 68.997192%, 60.212708%)" stop-opacity="1"/>
<stop offset="0.515625" stop-color="rgb(27.043152%, 68.954468%, 59.855652%)" stop-opacity="1"/>
<stop offset="0.523438" stop-color="rgb(26.902771%, 68.911743%, 59.49707%)" stop-opacity="1"/>
<stop offset="0.53125" stop-color="rgb(26.76239%, 68.870544%, 59.140015%)" stop-opacity="1"/>
<stop offset="0.539062" stop-color="rgb(26.622009%, 68.82782%, 58.782959%)" stop-opacity="1"/>
<stop offset="0.546875" stop-color="rgb(26.481628%, 68.785095%, 58.425903%)" stop-opacity="1"/>
<stop offset="0.554687" stop-color="rgb(26.341248%, 68.742371%, 58.067322%)" stop-opacity="1"/>
<stop offset="0.5625" stop-color="rgb(26.200867%, 68.699646%, 57.710266%)" stop-opacity="1"/>
<stop offset="0.570312" stop-color="rgb(26.060486%, 68.656921%, 57.35321%)" stop-opacity="1"/>
<stop offset="0.578125" stop-color="rgb(25.920105%, 68.614197%, 56.996155%)" stop-opacity="1"/>
<stop offset="0.585938" stop-color="rgb(25.779724%, 68.571472%, 56.637573%)" stop-opacity="1"/>
<stop offset="0.59375" stop-color="rgb(25.639343%, 68.528748%, 56.280518%)" stop-opacity="1"/>
<stop offset="0.601562" stop-color="rgb(25.498962%, 68.487549%, 55.923462%)" stop-opacity="1"/>
<stop offset="0.609375" stop-color="rgb(25.358582%, 68.444824%, 55.566406%)" stop-opacity="1"/>
<stop offset="0.617188" stop-color="rgb(25.218201%, 68.4021%, 55.207825%)" stop-opacity="1"/>
<stop offset="0.625" stop-color="rgb(25.07782%, 68.359375%, 54.850769%)" stop-opacity="1"/>
<stop offset="0.632812" stop-color="rgb(24.937439%, 68.31665%, 54.493713%)" stop-opacity="1"/>
<stop offset="0.640625" stop-color="rgb(24.797058%, 68.273926%, 54.136658%)" stop-opacity="1"/>
<stop offset="0.648437" stop-color="rgb(24.656677%, 68.231201%, 53.778076%)" stop-opacity="1"/>
<stop offset="0.65625" stop-color="rgb(24.516296%, 68.188477%, 53.421021%)" stop-opacity="1"/>
<stop offset="0.664062" stop-color="rgb(24.375916%, 68.145752%, 53.063965%)" stop-opacity="1"/>
<stop offset="0.671875" stop-color="rgb(24.235535%, 68.104553%, 52.706909%)" stop-opacity="1"/>
<stop offset="0.679688" stop-color="rgb(24.095154%, 68.061829%, 52.348328%)" stop-opacity="1"/>
<stop offset="0.6875" stop-color="rgb(23.954773%, 68.019104%, 51.991272%)" stop-opacity="1"/>
<stop offset="0.695312" stop-color="rgb(23.814392%, 67.976379%, 51.634216%)" stop-opacity="1"/>
<stop offset="0.703125" stop-color="rgb(23.674011%, 67.933655%, 51.277161%)" stop-opacity="1"/>
<stop offset="0.710938" stop-color="rgb(23.53363%, 67.89093%, 50.918579%)" stop-opacity="1"/>
<stop offset="0.71875" stop-color="rgb(23.39325%, 67.848206%, 50.561523%)" stop-opacity="1"/>
<stop offset="0.726562" stop-color="rgb(23.251343%, 67.805481%, 50.204468%)" stop-opacity="1"/>
<stop offset="0.734375" stop-color="rgb(23.110962%, 67.762756%, 49.847412%)" stop-opacity="1"/>
<stop offset="0.742187" stop-color="rgb(22.970581%, 67.721558%, 49.488831%)" stop-opacity="1"/>
<stop offset="0.75" stop-color="rgb(22.8302%, 67.678833%, 49.131775%)" stop-opacity="1"/>
<stop offset="0.757812" stop-color="rgb(22.689819%, 67.636108%, 48.774719%)" stop-opacity="1"/>
<stop offset="0.765625" stop-color="rgb(22.549438%, 67.593384%, 48.417664%)" stop-opacity="1"/>
<stop offset="0.773438" stop-color="rgb(22.409058%, 67.550659%, 48.059082%)" stop-opacity="1"/>
<stop offset="0.78125" stop-color="rgb(22.268677%, 67.507935%, 47.702026%)" stop-opacity="1"/>
<stop offset="0.789062" stop-color="rgb(22.128296%, 67.46521%, 47.344971%)" stop-opacity="1"/>
<stop offset="0.796875" stop-color="rgb(21.987915%, 67.422485%, 46.987915%)" stop-opacity="1"/>
<stop offset="0.804687" stop-color="rgb(21.847534%, 67.379761%, 46.629333%)" stop-opacity="1"/>
<stop offset="0.8125" stop-color="rgb(21.707153%, 67.338562%, 46.272278%)" stop-opacity="1"/>
<stop offset="0.820312" stop-color="rgb(21.566772%, 67.295837%, 45.915222%)" stop-opacity="1"/>
<stop offset="0.828125" stop-color="rgb(21.426392%, 67.253113%, 45.558167%)" stop-opacity="1"/>
<stop offset="0.835938" stop-color="rgb(21.286011%, 67.210388%, 45.199585%)" stop-opacity="1"/>
<stop offset="0.84375" stop-color="rgb(21.14563%, 67.167664%, 44.842529%)" stop-opacity="1"/>
<stop offset="0.851563" stop-color="rgb(21.005249%, 67.124939%, 44.485474%)" stop-opacity="1"/>
<stop offset="0.859375" stop-color="rgb(20.864868%, 67.082214%, 44.128418%)" stop-opacity="1"/>
<stop offset="0.875" stop-color="rgb(20.788574%, 67.059326%, 43.934631%)" stop-opacity="1"/>
<stop offset="1" stop-color="rgb(20.783997%, 67.0578%, 43.920898%)" stop-opacity="1"/>
</linearGradient>
</defs>
<g clip-path="url(#clip-0)">
<path fill-rule="nonzero" fill="url(#linear-pattern-0)" d="M 1936.507812 -1936.5 L -1936.5 1936.492188 L 1936.492188 5809.5 L 5809.5 1936.507812 Z M 1936.507812 -1936.5 "/>
</g>
<path fill-rule="evenodd" fill="rgb(100%, 100%, 99.609375%)" fill-opacity="1" d="M 2641.699219 2540.398438 C 2741.800781 2399.699219 2800.699219 2227.898438 2800.699219 2042.601562 C 2800.699219 2007.199219 2798.5 1972.300781 2794.398438 1938.101562 C 2744.898438 1944.398438 2696.800781 1954.601562 2650.199219 1968.300781 C 2677.300781 2056.5 2691.199219 2148.800781 2691.199219 2242.898438 C 2691.300781 2344.300781 2674.398438 2444.699219 2641.699219 2540.398438 Z M 2481.5 2711.199219 C 2489.398438 2704.800781 2497.101562 2698.300781 2504.800781 2691.601562 C 2587.199219 2555.5 2630.601562 2400.5 2630.601562 2243 C 2630.601562 2155.199219 2617.800781 2069.300781 2592.699219 1987.199219 C 2538.898438 2006.898438 2487.5 2031.398438 2439.101562 2060.199219 C 2492.800781 2178.601562 2520.898438 2309.800781 2520.898438 2441.601562 C 2520.898438 2535.398438 2507.699219 2625.601562 2481.5 2711.199219 Z M 2337.800781 2806 C 2357.101562 2795.898438 2376 2785 2394.398438 2773.5 C 2438.199219 2670.601562 2460.5 2559 2460.5 2441.398438 C 2460.5 2321.199219 2435.398438 2201.5 2387.601562 2093.199219 C 2336.601562 2128.300781 2289.398438 2168.398438 2246.699219 2212.699219 C 2315.898438 2346.601562 2352.199219 2494.5 2352.199219 2641.898438 C 2352.199219 2696.601562 2347.300781 2751.601562 2337.800781 2806 Z M 2182.199219 2869.300781 C 2212.199219 2860.398438 2241.5 2849.898438 2270.101562 2837.898438 C 2284.601562 2773.199219 2291.800781 2707.5 2291.800781 2642.101562 C 2291.800781 2511.800781 2261.300781 2380.898438 2203.199219 2261.101562 C 2158.398438 2314.601562 2119.699219 2373.300781 2087.898438 2436.101562 C 2149.601562 2558.199219 2182.300781 2698.398438 2182.300781 2842.398438 C 2182.398438 2851.199219 2182.398438 2860.199219 2182.199219 2869.300781 Z M 1988.199219 2903.300781 C 2033.601562 2900.601562 2078.101562 2894.398438 2121.398438 2884.898438 C 2121.898438 2871 2121.898438 2856.898438 2121.898438 2842.300781 C 2121.898438 2725.199219 2099 2610.898438 2055.101562 2508.398438 C 2011.601562 2616.300781 1987.800781 2734.300781 1987.800781 2857.800781 C 1987.800781 2873 1987.800781 2888.398438 1988.199219 2903.300781 Z M 1797.898438 2893.699219 C 1840.199219 2900.5 1883.5 2904.300781 1927.699219 2904.699219 C 1927.300781 2889 1927.300781 2873.101562 1927.300781 2857.5 C 1927.300781 2708.101562 1960.800781 2562.5 2024.101562 2430.398438 C 2025.101562 2424.699219 2027.601562 2419.398438 2031.601562 2415.101562 C 2071.800781 2334.699219 2123.199219 2259.5 2184.898438 2191.800781 C 2242.300781 2128.898438 2306.800781 2074.199219 2376.800781 2028.601562 C 2379.398438 2025.398438 2382.699219 2022.800781 2386.601562 2020.898438 C 2388.398438 2020 2390.300781 2019.300781 2392.199219 2018.800781 C 2456 1978.898438 2524.199219 1946.5 2595.5 1922.199219 C 2597.398438 1921 2599.601562 1919.898438 2601.800781 1919.199219 C 2604.300781 1918.300781 2606.898438 1917.800781 2609.398438 1917.601562 C 2666.199219 1899.199219 2725 1885.898438 2785 1878 C 2776.5 1833.898438 2764.601562 1791 2749.601562 1749.601562 C 2733 1748.398438 2716.101562 1747.5 2700.300781 1747.5 C 2188.398438 1747.5 1771.800781 2164.101562 1771.800781 2676 C 1771.800781 2749.398438 1780.398438 2820.800781 1797.898438 2893.699219 Z M 1628.300781 2848.101562 C 1662.199219 2861.101562 1697.199219 2872 1733 2880.601562 C 1718.5 2812.398438 1711.5 2744.898438 1711.5 2675.800781 C 1711.5 2542.300781 1737.601562 2412.699219 1789.199219 2290.800781 C 1838.898438 2173 1910.398438 2067.300781 2001.199219 1976.5 C 2092 1885.699219 2197.898438 1814.398438 2315.5 1764.5 C 2437.5 1712.898438 2567 1686.800781 2700.5 1686.800781 C 2708.300781 1686.800781 2716.300781 1687 2724.199219 1687.398438 C 2708.199219 1652 2689.800781 1617.898438 2669.398438 1585.199219 C 2611 1572.300781 2548.898438 1565.800781 2485.101562 1565.800781 C 1974.101562 1565.800781 1558.5 1982.398438 1558.5 2494.300781 C 1558.5 2618.300781 1581.898438 2737.398438 1628.300781 2848.101562 Z M 1458.101562 2760.199219 C 1487.601562 2779.800781 1518.300781 2797.699219 1550.199219 2813.699219 C 1515.398438 2712.300781 1497.898438 2605.398438 1497.898438 2494.5 C 1497.898438 2361 1524 2231.398438 1575.601562 2109.5 C 1625.300781 1991.699219 1696.601562 1886 1787.398438 1795.199219 C 1878.199219 1704.398438 1983.699219 1633.101562 2101.101562 1583.199219 C 2222.699219 1531.601562 2351.898438 1505.5 2485 1505.5 C 2531.300781 1505.5 2576.601562 1508.699219 2620.601562 1515.101562 C 2595.898438 1483.199219 2569.101562 1453.101562 2540.300781 1424.898438 C 2454.601562 1398.101562 2364 1384.699219 2271.398438 1384.699219 C 1759.5 1384.699219 1342.898438 1801.300781 1342.898438 2313.199219 C 1342.898438 2468.898438 1382.699219 2623.199219 1458.101562 2760.199219 Z M 1073.398438 1999.300781 C 1072.699219 2013.601562 1072.300781 2028.101562 1072.300781 2042.601562 C 1072.300781 2293.300781 1180.101562 2519.199219 1351.800781 2676.898438 C 1306 2561.199219 1282.199219 2437.5 1282.199219 2313 C 1282.199219 2199.5 1301.101562 2088.898438 1338.398438 1983.300781 C 1314.398438 1981.300781 1288.601562 1980.398438 1259.699219 1980.398438 C 1193.300781 1980.300781 1130.800781 1986.699219 1073.398438 1999.300781 Z M 1095 1845.601562 C 1088.101562 1875.199219 1082.601562 1905.5 1078.800781 1936.199219 C 1135.300781 1925.199219 1195.898438 1919.601562 1259.5 1919.601562 C 1297.5 1919.601562 1330.5 1921.199219 1361.398438 1924.5 C 1383 1873.898438 1408.601562 1825.5 1438 1779.601562 L 1427.800781 1779.601562 C 1312.898438 1779.699219 1201.101562 1801.898438 1095 1845.601562 Z M 1138.398438 1711.101562 C 1130 1731.300781 1122.300781 1752 1115.398438 1773 C 1215.699219 1737.300781 1320.601562 1719.199219 1427.800781 1719.199219 C 1445 1719.199219 1462.5 1719.199219 1479.5 1720.101562 C 1507.601562 1682.699219 1538.5 1647.199219 1571.898438 1613.699219 C 1583.601562 1602 1595.601562 1590.601562 1607.800781 1579.5 C 1604.601562 1579.5 1601.300781 1579.398438 1598 1579.398438 C 1433.5 1579.398438 1274.898438 1624.898438 1138.398438 1711.101562 Z M 1199.800781 1591.398438 C 1195 1599.199219 1190.398438 1607 1185.800781 1615 C 1312.5 1551.800781 1453.199219 1518.800781 1598 1518.800781 C 1625.398438 1518.800781 1650.800781 1520.300781 1677.5 1522 C 1741.800781 1473.601562 1811.601562 1433.398438 1886.199219 1401.699219 C 1895 1398 1903.800781 1394.398438 1912.601562 1391 C 1864.699219 1382.898438 1815.699219 1378.800781 1766.300781 1378.800781 C 1558.300781 1378.800781 1357.398438 1454.300781 1199.800781 1591.398438 Z M 1936.5 1178.300781 C 1699.699219 1178.300781 1484.898438 1274 1328.699219 1428.800781 C 1462.398438 1356.699219 1612.601562 1318.199219 1766.300781 1318.199219 C 1855 1318.199219 1941.898438 1330.5 2025.101562 1354.699219 C 2105 1334.199219 2187.398438 1323.898438 2271.300781 1323.898438 C 2327.101562 1323.898438 2382.199219 1328.5 2436.101562 1337.699219 C 2294.898438 1237.398438 2122.5 1178.300781 1936.5 1178.300781 "/>
<path fill-rule="evenodd" fill="rgb(100%, 100%, 99.609375%)" fill-opacity="1" d="M 1265.398438 906 C 1189.601562 906 1115.398438 866.699219 1074.601562 796.300781 C 1074.601562 796.300781 1074.601562 796.101562 1074.398438 796.101562 C 1014.800781 692.300781 1051.101562 558.601562 1155.300781 497.699219 C 1155.300781 497.699219 1155.5 497.699219 1155.5 497.5 C 1259.300781 437.898438 1393 474.199219 1453.898438 578.398438 C 1453.898438 578.398438 1453.898438 578.601562 1454.101562 578.601562 C 1513.699219 682.398438 1477.398438 816.101562 1373.199219 877 C 1373.199219 877 1373 877 1373 877.199219 C 1339.101562 896.898438 1302 906 1265.398438 906 "/>
<path fill-rule="evenodd" fill="rgb(100%, 100%, 99.609375%)" fill-opacity="1" d="M 1503.5 1225.601562 L 1305.300781 881.398438 C 1288.601562 852.398438 1298.601562 815.398438 1327.699219 798.800781 C 1356.699219 782.199219 1393.5 792.199219 1410.199219 821.101562 L 1614.398438 1175.699219 C 1576.398438 1189.898438 1539.300781 1206.5 1503.5 1225.601562 Z M 2797 3404.101562 C 2775.398438 3404.101562 2755.300781 3392.601562 2744.5 3373.898438 L 2430.300781 2830.800781 L 2497.199219 2776.398438 L 2523.199219 2749.5 L 2849.300781 3313.199219 C 2865.898438 3341.898438 2856.101562 3378.800781 2827.601562 3395.800781 C 2818.300781 3401.199219 2807.699219 3404.101562 2797 3404.101562 "/>
<path fill-rule="evenodd" fill="rgb(100%, 100%, 99.609375%)" fill-opacity="1" d="M 2258.5 1175.699219 L 2462.601562 821.199219 C 2479.199219 792.300781 2516.199219 782.300781 2545.101562 798.898438 C 2574 815.5 2584 852.5 2567.398438 881.398438 L 2369.199219 1225.601562 C 2333.5 1206.398438 2296.5 1189.800781 2258.5 1175.699219 Z M 1076.101562 3404.101562 C 1065.398438 3404.101562 1054.800781 3401.199219 1045.601562 3395.699219 C 1016.898438 3378.800781 1007.101562 3341.898438 1023.800781 3313.101562 L 1346.898438 2754.5 L 1438.300781 2838.398438 L 1128.601562 3373.898438 C 1117.699219 3392.601562 1097.601562 3404.101562 1076.101562 3404.101562 "/>
<path fill-rule="evenodd" fill="rgb(100%, 100%, 99.609375%)" fill-opacity="1" d="M 2607.699219 906 C 2571 906 2533.898438 896.699219 2500.101562 877.300781 C 2500.101562 877.300781 2499.898438 877.300781 2499.898438 877.101562 C 2395.699219 816.199219 2359.398438 682.5 2419 578.699219 C 2419 578.699219 2419 578.5 2419.199219 578.5 C 2480.101562 474.300781 2613.800781 438 2717.601562 497.601562 C 2717.601562 497.601562 2717.800781 497.601562 2717.800781 497.800781 C 2822 558.699219 2858.300781 692.398438 2798.699219 796.199219 C 2798.699219 796.199219 2798.699219 796.398438 2798.5 796.398438 C 2757.601562 866.699219 2683.300781 906 2607.699219 906 "/>
</svg>
